<?xml version="1.0" encoding="utf-8" standalone="no"?>
<!DOCTYPE svg PUBLIC "-//W3C//DTD SVG 1.1//EN"
  "http://www.w3.org/Graphics/SVG/1.1/DTD/svg11.dtd">
<svg xmlns:xlink="http://www.w3.org/1999/xlink" width="234.11961pt" height="234.11952pt" viewBox="0 0 234.11961 234.11952" xmlns="http://www.w3.org/2000/svg" version="1.1">
 <metadata>
  <rdf:RDF xmlns:dc="http://purl.org/dc/elements/1.1/" xmlns:cc="http://creativecommons.org/ns#" xmlns:rdf="http://www.w3.org/1999/02/22-rdf-syntax-ns#">
   <cc:Work>
    <dc:type rdf:resource="http://purl.org/dc/dcmitype/StillImage"/>
    <dc:date>2025-10-13T19:07:15.702981</dc:date>
    <dc:format>image/svg+xml</dc:format>
    <dc:creator>
     <cc:Agent>
      <dc:title>Matplotlib v3.10.6, https://matplotlib.org/</dc:title>
     </cc:Agent>
    </dc:creator>
   </cc:Work>
  </rdf:RDF>
 </metadata>
 <defs>
  <style type="text/css">*{stroke-linejoin: round; stroke-linecap: butt}</style>
 </defs>
 <g id="figure_1">
  <g id="patch_1">
   <path d="M 0 234.11952 
L 234.11961 234.11952 
L 234.11961 0 
L 0 0 
z
" style="fill: #ffffff"/>
  </g>
  <g id="axes_1">
   <g id="patch_2">
    <path d="M 46.964375 192.098426 
L 225.042535 192.098426 
L 225.042535 21.789375 
L 46.964375 21.789375 
z
" style="fill: #ffffff"/>
   </g>
   <g id="matplotlib.axis_1">
    <g id="xtick_1">
     <g id="line2d_1">
      <defs>
       <path id="m32318b4da0" d="M 0 0 
L 0 6 
" style="stroke: #262626; stroke-width: 1.25"/>
      </defs>
      <g>
       <use xlink:href="#m32318b4da0" x="51.204331" y="192.098426" style="fill: #262626; stroke: #262626; stroke-width: 1.25"/>
      </g>
     </g>
     <g id="text_1">
      <!-- -70 -->
      <g style="fill: #262626" transform="translate(43.255972 209.47202) scale(0.11 -0.11)">
       <defs>
        <path id="ArialMT-2d" d="M 203 1375 
L 203 1941 
L 1931 1941 
L 1931 1375 
L 203 1375 
z
" transform="scale(0.015625)"/>
        <path id="ArialMT-37" d="M 303 3981 
L 303 4522 
L 3269 4522 
L 3269 4084 
Q 2831 3619 2401 2847 
Q 1972 2075 1738 1259 
Q 1569 684 1522 0 
L 944 0 
Q 953 541 1156 1306 
Q 1359 2072 1739 2783 
Q 2119 3494 2547 3981 
L 303 3981 
z
" transform="scale(0.015625)"/>
        <path id="ArialMT-30" d="M 266 2259 
Q 266 3072 433 3567 
Q 600 4063 929 4331 
Q 1259 4600 1759 4600 
Q 2128 4600 2406 4451 
Q 2684 4303 2865 4023 
Q 3047 3744 3150 3342 
Q 3253 2941 3253 2259 
Q 3253 1453 3087 958 
Q 2922 463 2592 192 
Q 2263 -78 1759 -78 
Q 1097 -78 719 397 
Q 266 969 266 2259 
z
M 844 2259 
Q 844 1131 1108 757 
Q 1372 384 1759 384 
Q 2147 384 2411 759 
Q 2675 1134 2675 2259 
Q 2675 3391 2411 3762 
Q 2147 4134 1753 4134 
Q 1366 4134 1134 3806 
Q 844 3388 844 2259 
z
" transform="scale(0.015625)"/>
       </defs>
       <use xlink:href="#ArialMT-2d"/>
       <use xlink:href="#ArialMT-37" transform="translate(33.300781 0)"/>
       <use xlink:href="#ArialMT-30" transform="translate(88.916016 0)"/>
      </g>
     </g>
    </g>
    <g id="xtick_2">
     <g id="line2d_2">
      <g>
       <use xlink:href="#m32318b4da0" x="102.083806" y="192.098426" style="fill: #262626; stroke: #262626; stroke-width: 1.25"/>
      </g>
     </g>
    </g>
    <g id="xtick_3">
     <g id="line2d_3">
      <g>
       <use xlink:href="#m32318b4da0" x="119.04363" y="192.098426" style="fill: #262626; stroke: #262626; stroke-width: 1.25"/>
      </g>
     </g>
    </g>
    <g id="xtick_4">
     <g id="line2d_4">
      <g>
       <use xlink:href="#m32318b4da0" x="127.523543" y="192.098426" style="fill: #262626; stroke: #262626; stroke-width: 1.25"/>
      </g>
     </g>
    </g>
    <g id="xtick_5">
     <g id="line2d_5">
      <g>
       <use xlink:href="#m32318b4da0" x="136.003455" y="192.098426" style="fill: #262626; stroke: #262626; stroke-width: 1.25"/>
      </g>
     </g>
     <g id="text_2">
      <!-- 0 -->
      <g style="fill: #262626" transform="translate(132.94494 209.47202) scale(0.11 -0.11)">
       <use xlink:href="#ArialMT-30"/>
      </g>
     </g>
    </g>
    <g id="xtick_6">
     <g id="line2d_6">
      <g>
       <use xlink:href="#m32318b4da0" x="144.483368" y="192.098426" style="fill: #262626; stroke: #262626; stroke-width: 1.25"/>
      </g>
     </g>
    </g>
    <g id="xtick_7">
     <g id="line2d_7">
      <g>
       <use xlink:href="#m32318b4da0" x="152.96328" y="192.098426" style="fill: #262626; stroke: #262626; stroke-width: 1.25"/>
      </g>
     </g>
    </g>
    <g id="xtick_8">
     <g id="line2d_8">
      <g>
       <use xlink:href="#m32318b4da0" x="169.923105" y="192.098426" style="fill: #262626; stroke: #262626; stroke-width: 1.25"/>
      </g>
     </g>
    </g>
    <g id="xtick_9">
     <g id="line2d_9">
      <g>
       <use xlink:href="#m32318b4da0" x="220.802579" y="192.098426" style="fill: #262626; stroke: #262626; stroke-width: 1.25"/>
      </g>
     </g>
     <g id="text_3">
      <!-- 70 -->
      <g style="fill: #262626" transform="translate(214.685548 209.47202) scale(0.11 -0.11)">
       <use xlink:href="#ArialMT-37"/>
       <use xlink:href="#ArialMT-30" transform="translate(55.615234 0)"/>
      </g>
     </g>
    </g>
    <g id="text_4">
     <!-- Rep. ILD (dB) -->
     <g style="fill: #262626" transform="translate(99.325643 224.393895) scale(0.12 -0.12)">
      <defs>
       <path id="ArialMT-52" d="M 503 0 
L 503 4581 
L 2534 4581 
Q 3147 4581 3465 4457 
Q 3784 4334 3975 4021 
Q 4166 3709 4166 3331 
Q 4166 2844 3850 2509 
Q 3534 2175 2875 2084 
Q 3116 1969 3241 1856 
Q 3506 1613 3744 1247 
L 4541 0 
L 3778 0 
L 3172 953 
Q 2906 1366 2734 1584 
Q 2563 1803 2427 1890 
Q 2291 1978 2150 2013 
Q 2047 2034 1813 2034 
L 1109 2034 
L 1109 0 
L 503 0 
z
M 1109 2559 
L 2413 2559 
Q 2828 2559 3062 2645 
Q 3297 2731 3419 2920 
Q 3541 3109 3541 3331 
Q 3541 3656 3305 3865 
Q 3069 4075 2559 4075 
L 1109 4075 
L 1109 2559 
z
" transform="scale(0.015625)"/>
       <path id="ArialMT-65" d="M 2694 1069 
L 3275 997 
Q 3138 488 2766 206 
Q 2394 -75 1816 -75 
Q 1088 -75 661 373 
Q 234 822 234 1631 
Q 234 2469 665 2931 
Q 1097 3394 1784 3394 
Q 2450 3394 2872 2941 
Q 3294 2488 3294 1666 
Q 3294 1616 3291 1516 
L 816 1516 
Q 847 969 1125 678 
Q 1403 388 1819 388 
Q 2128 388 2347 550 
Q 2566 713 2694 1069 
z
M 847 1978 
L 2700 1978 
Q 2663 2397 2488 2606 
Q 2219 2931 1791 2931 
Q 1403 2931 1139 2672 
Q 875 2413 847 1978 
z
" transform="scale(0.015625)"/>
       <path id="ArialMT-70" d="M 422 -1272 
L 422 3319 
L 934 3319 
L 934 2888 
Q 1116 3141 1344 3267 
Q 1572 3394 1897 3394 
Q 2322 3394 2647 3175 
Q 2972 2956 3137 2557 
Q 3303 2159 3303 1684 
Q 3303 1175 3120 767 
Q 2938 359 2589 142 
Q 2241 -75 1856 -75 
Q 1575 -75 1351 44 
Q 1128 163 984 344 
L 984 -1272 
L 422 -1272 
z
M 931 1641 
Q 931 1000 1190 694 
Q 1450 388 1819 388 
Q 2194 388 2461 705 
Q 2728 1022 2728 1688 
Q 2728 2322 2467 2637 
Q 2206 2953 1844 2953 
Q 1484 2953 1207 2617 
Q 931 2281 931 1641 
z
" transform="scale(0.015625)"/>
       <path id="ArialMT-2e" d="M 581 0 
L 581 641 
L 1222 641 
L 1222 0 
L 581 0 
z
" transform="scale(0.015625)"/>
       <path id="ArialMT-20" transform="scale(0.015625)"/>
       <path id="ArialMT-49" d="M 597 0 
L 597 4581 
L 1203 4581 
L 1203 0 
L 597 0 
z
" transform="scale(0.015625)"/>
       <path id="ArialMT-4c" d="M 469 0 
L 469 4581 
L 1075 4581 
L 1075 541 
L 3331 541 
L 3331 0 
L 469 0 
z
" transform="scale(0.015625)"/>
       <path id="ArialMT-44" d="M 494 0 
L 494 4581 
L 2072 4581 
Q 2606 4581 2888 4516 
Q 3281 4425 3559 4188 
Q 3922 3881 4101 3404 
Q 4281 2928 4281 2316 
Q 4281 1794 4159 1391 
Q 4038 988 3847 723 
Q 3656 459 3429 307 
Q 3203 156 2883 78 
Q 2563 0 2147 0 
L 494 0 
z
M 1100 541 
L 2078 541 
Q 2531 541 2789 625 
Q 3047 709 3200 863 
Q 3416 1078 3536 1442 
Q 3656 1806 3656 2325 
Q 3656 3044 3420 3430 
Q 3184 3816 2847 3947 
Q 2603 4041 2063 4041 
L 1100 4041 
L 1100 541 
z
" transform="scale(0.015625)"/>
       <path id="ArialMT-28" d="M 1497 -1347 
Q 1031 -759 709 28 
Q 388 816 388 1659 
Q 388 2403 628 3084 
Q 909 3875 1497 4659 
L 1900 4659 
Q 1522 4009 1400 3731 
Q 1209 3300 1100 2831 
Q 966 2247 966 1656 
Q 966 153 1900 -1347 
L 1497 -1347 
z
" transform="scale(0.015625)"/>
       <path id="ArialMT-64" d="M 2575 0 
L 2575 419 
Q 2259 -75 1647 -75 
Q 1250 -75 917 144 
Q 584 363 401 755 
Q 219 1147 219 1656 
Q 219 2153 384 2558 
Q 550 2963 881 3178 
Q 1213 3394 1622 3394 
Q 1922 3394 2156 3267 
Q 2391 3141 2538 2938 
L 2538 4581 
L 3097 4581 
L 3097 0 
L 2575 0 
z
M 797 1656 
Q 797 1019 1065 703 
Q 1334 388 1700 388 
Q 2069 388 2326 689 
Q 2584 991 2584 1609 
Q 2584 2291 2321 2609 
Q 2059 2928 1675 2928 
Q 1300 2928 1048 2622 
Q 797 2316 797 1656 
z
" transform="scale(0.015625)"/>
       <path id="ArialMT-42" d="M 469 0 
L 469 4581 
L 2188 4581 
Q 2713 4581 3030 4442 
Q 3347 4303 3526 4014 
Q 3706 3725 3706 3409 
Q 3706 3116 3547 2856 
Q 3388 2597 3066 2438 
Q 3481 2316 3704 2022 
Q 3928 1728 3928 1328 
Q 3928 1006 3792 729 
Q 3656 453 3456 303 
Q 3256 153 2954 76 
Q 2653 0 2216 0 
L 469 0 
z
M 1075 2656 
L 2066 2656 
Q 2469 2656 2644 2709 
Q 2875 2778 2992 2937 
Q 3109 3097 3109 3338 
Q 3109 3566 3000 3739 
Q 2891 3913 2687 3977 
Q 2484 4041 1991 4041 
L 1075 4041 
L 1075 2656 
z
M 1075 541 
L 2216 541 
Q 2509 541 2628 563 
Q 2838 600 2978 687 
Q 3119 775 3209 942 
Q 3300 1109 3300 1328 
Q 3300 1584 3169 1773 
Q 3038 1963 2805 2039 
Q 2572 2116 2134 2116 
L 1075 2116 
L 1075 541 
z
" transform="scale(0.015625)"/>
       <path id="ArialMT-29" d="M 791 -1347 
L 388 -1347 
Q 1322 153 1322 1656 
Q 1322 2244 1188 2822 
Q 1081 3291 891 3722 
Q 769 4003 388 4659 
L 791 4659 
Q 1378 3875 1659 3084 
Q 1900 2403 1900 1659 
Q 1900 816 1576 28 
Q 1253 -759 791 -1347 
z
" transform="scale(0.015625)"/>
      </defs>
      <use xlink:href="#ArialMT-52"/>
      <use xlink:href="#ArialMT-65" transform="translate(72.216797 0)"/>
      <use xlink:href="#ArialMT-70" transform="translate(127.832031 0)"/>
      <use xlink:href="#ArialMT-2e" transform="translate(183.447266 0)"/>
      <use xlink:href="#ArialMT-20" transform="translate(211.230469 0)"/>
      <use xlink:href="#ArialMT-49" transform="translate(239.013672 0)"/>
      <use xlink:href="#ArialMT-4c" transform="translate(266.796875 0)"/>
      <use xlink:href="#ArialMT-44" transform="translate(322.412109 0)"/>
      <use xlink:href="#ArialMT-20" transform="translate(394.628906 0)"/>
      <use xlink:href="#ArialMT-28" transform="translate(422.412109 0)"/>
      <use xlink:href="#ArialMT-64" transform="translate(455.712891 0)"/>
      <use xlink:href="#ArialMT-42" transform="translate(511.328125 0)"/>
      <use xlink:href="#ArialMT-29" transform="translate(578.027344 0)"/>
     </g>
    </g>
   </g>
   <g id="matplotlib.axis_2">
    <g id="ytick_1">
     <g id="line2d_10">
      <defs>
       <path id="mfd0fda91f2" d="M 0 0 
L -6 0 
" style="stroke: #262626; stroke-width: 1.25"/>
      </defs>
      <g>
       <use xlink:href="#mfd0fda91f2" x="46.964375" y="192.098426" style="fill: #262626; stroke: #262626; stroke-width: 1.25"/>
      </g>
     </g>
     <g id="text_5">
      <!-- 0 -->
      <g style="fill: #262626" transform="translate(31.347344 196.035223) scale(0.11 -0.11)">
       <use xlink:href="#ArialMT-30"/>
      </g>
     </g>
    </g>
    <g id="ytick_2">
     <g id="line2d_11">
      <g>
       <use xlink:href="#mfd0fda91f2" x="46.964375" y="108.907213" style="fill: #262626; stroke: #262626; stroke-width: 1.25"/>
      </g>
     </g>
     <g id="text_6">
      <!-- 0.5 -->
      <g style="fill: #262626" transform="translate(22.174375 112.84401) scale(0.11 -0.11)">
       <defs>
        <path id="ArialMT-35" d="M 266 1200 
L 856 1250 
Q 922 819 1161 601 
Q 1400 384 1738 384 
Q 2144 384 2425 690 
Q 2706 997 2706 1503 
Q 2706 1984 2436 2262 
Q 2166 2541 1728 2541 
Q 1456 2541 1237 2417 
Q 1019 2294 894 2097 
L 366 2166 
L 809 4519 
L 3088 4519 
L 3088 3981 
L 1259 3981 
L 1013 2750 
Q 1425 3038 1878 3038 
Q 2478 3038 2890 2622 
Q 3303 2206 3303 1553 
Q 3303 931 2941 478 
Q 2500 -78 1738 -78 
Q 1113 -78 717 272 
Q 322 622 266 1200 
z
" transform="scale(0.015625)"/>
       </defs>
       <use xlink:href="#ArialMT-30"/>
       <use xlink:href="#ArialMT-2e" transform="translate(55.615234 0)"/>
       <use xlink:href="#ArialMT-35" transform="translate(83.398438 0)"/>
      </g>
     </g>
    </g>
    <g id="ytick_3">
     <g id="line2d_12">
      <g>
       <use xlink:href="#mfd0fda91f2" x="46.964375" y="25.716" style="fill: #262626; stroke: #262626; stroke-width: 1.25"/>
      </g>
     </g>
     <g id="text_7">
      <!-- 1 -->
      <g style="fill: #262626" transform="translate(31.347344 29.652797) scale(0.11 -0.11)">
       <defs>
        <path id="ArialMT-31" d="M 2384 0 
L 1822 0 
L 1822 3584 
Q 1619 3391 1289 3197 
Q 959 3003 697 2906 
L 697 3450 
Q 1169 3672 1522 3987 
Q 1875 4303 2022 4600 
L 2384 4600 
L 2384 0 
z
" transform="scale(0.015625)"/>
       </defs>
       <use xlink:href="#ArialMT-31"/>
      </g>
     </g>
    </g>
    <g id="text_8">
     <!-- P. rep. -->
     <g style="fill: #262626" transform="translate(15.789375 123.845151) rotate(-90) scale(0.12 -0.12)">
      <defs>
       <path id="ArialMT-50" d="M 494 0 
L 494 4581 
L 2222 4581 
Q 2678 4581 2919 4538 
Q 3256 4481 3484 4323 
Q 3713 4166 3852 3881 
Q 3991 3597 3991 3256 
Q 3991 2672 3619 2267 
Q 3247 1863 2275 1863 
L 1100 1863 
L 1100 0 
L 494 0 
z
M 1100 2403 
L 2284 2403 
Q 2872 2403 3119 2622 
Q 3366 2841 3366 3238 
Q 3366 3525 3220 3729 
Q 3075 3934 2838 4000 
Q 2684 4041 2272 4041 
L 1100 4041 
L 1100 2403 
z
" transform="scale(0.015625)"/>
       <path id="ArialMT-72" d="M 416 0 
L 416 3319 
L 922 3319 
L 922 2816 
Q 1116 3169 1280 3281 
Q 1444 3394 1641 3394 
Q 1925 3394 2219 3213 
L 2025 2691 
Q 1819 2813 1613 2813 
Q 1428 2813 1281 2702 
Q 1134 2591 1072 2394 
Q 978 2094 978 1738 
L 978 0 
L 416 0 
z
" transform="scale(0.015625)"/>
      </defs>
      <use xlink:href="#ArialMT-50"/>
      <use xlink:href="#ArialMT-2e" transform="translate(53.824219 0)"/>
      <use xlink:href="#ArialMT-20" transform="translate(81.607422 0)"/>
      <use xlink:href="#ArialMT-72" transform="translate(109.390625 0)"/>
      <use xlink:href="#ArialMT-65" transform="translate(142.691406 0)"/>
      <use xlink:href="#ArialMT-70" transform="translate(198.306641 0)"/>
      <use xlink:href="#ArialMT-2e" transform="translate(253.921875 0)"/>
     </g>
    </g>
   </g>
   <g id="line2d_13">
    <path d="M -1 173.796359 
L 1.095758 173.796359 
L 7.091656 173.796359 
L 13.087553 173.796359 
L 19.083451 173.629977 
L 25.079349 173.629977 
L 31.075246 173.463595 
L 37.071144 173.463595 
L 43.067042 173.297212 
L 49.062939 172.964447 
L 55.058837 172.4653 
L 61.054734 171.966153 
L 67.050632 170.967858 
L 73.04653 169.636799 
L 79.042427 167.806592 
L 85.038325 164.978091 
L 91.034223 161.151295 
L 97.03012 155.827057 
L 103.026018 148.506231 
L 109.021916 139.188815 
L 115.017813 127.708427 
L 121.013711 114.564216 
L 127.009609 100.255327 
L 133.005506 86.279203 
L 139.001404 73.301374 
L 144.997302 62.153752 
L 150.993199 53.002718 
L 156.989097 46.181039 
L 162.984995 41.023183 
L 168.980892 37.36277 
L 174.97679 34.700651 
L 180.972688 32.870445 
L 186.968585 31.705768 
L 192.964483 30.873855 
L 198.960381 30.208326 
L 204.956278 29.875561 
L 210.952176 29.542796 
L 216.948074 29.376414 
L 222.943971 29.210031 
L 228.939869 29.210031 
L 234.935767 29.210031 
L 235.11961 29.20493 
" clip-path="url(#p0be91e12e7)" style="fill: none; stroke: #8c564b; stroke-width: 1.5; stroke-linecap: round"/>
   </g>
   <g id="LineCollection_1">
    <path d="M 51.204331 174.129124 
L 51.204331 173.13083 
" clip-path="url(#p0be91e12e7)" style="fill: none; stroke: #8c564b; stroke-width: 1.5"/>
    <path d="M 102.083806 149.504525 
L 102.083806 145.178582 
" clip-path="url(#p0be91e12e7)" style="fill: none; stroke: #8c564b; stroke-width: 1.5"/>
    <path d="M 119.04363 122.051425 
L 119.04363 117.392717 
" clip-path="url(#p0be91e12e7)" style="fill: none; stroke: #8c564b; stroke-width: 1.5"/>
    <path d="M 127.523543 101.919151 
L 127.523543 96.927679 
" clip-path="url(#p0be91e12e7)" style="fill: none; stroke: #8c564b; stroke-width: 1.5"/>
    <path d="M 136.003455 82.61879 
L 136.003455 77.960082 
" clip-path="url(#p0be91e12e7)" style="fill: none; stroke: #8c564b; stroke-width: 1.5"/>
    <path d="M 144.483368 62.652899 
L 144.483368 58.659721 
" clip-path="url(#p0be91e12e7)" style="fill: none; stroke: #8c564b; stroke-width: 1.5"/>
    <path d="M 152.96328 53.169101 
L 152.96328 49.508687 
" clip-path="url(#p0be91e12e7)" style="fill: none; stroke: #8c564b; stroke-width: 1.5"/>
    <path d="M 169.923105 39.026594 
L 169.923105 36.364476 
" clip-path="url(#p0be91e12e7)" style="fill: none; stroke: #8c564b; stroke-width: 1.5"/>
    <path d="M 220.802579 29.709178 
L 220.802579 29.043649 
" clip-path="url(#p0be91e12e7)" style="fill: none; stroke: #8c564b; stroke-width: 1.5"/>
   </g>
   <g id="line2d_14">
    <path d="M 46.964375 108.907213 
L 225.042535 108.907213 
" clip-path="url(#p0be91e12e7)" style="fill: none; stroke-dasharray: 5.55,2.4; stroke-dashoffset: 0; stroke: #7f7f7f; stroke-width: 1.5"/>
   </g>
   <g id="line2d_15">
    <path d="M 136.003455 192.098426 
L 136.003455 21.789375 
" clip-path="url(#p0be91e12e7)" style="fill: none; stroke-dasharray: 5.55,2.4; stroke-dashoffset: 0; stroke: #7f7f7f; stroke-width: 1.5"/>
   </g>
   <g id="line2d_16">
    <defs>
     <path id="m0f943d0317" d="M 0 3 
C 0.795609 3 1.55874 2.683901 2.12132 2.12132 
C 2.683901 1.55874 3 0.795609 3 0 
C 3 -0.795609 2.683901 -1.55874 2.12132 -2.12132 
C 1.55874 -2.683901 0.795609 -3 0 -3 
C -0.795609 -3 -1.55874 -2.683901 -2.12132 -2.12132 
C -2.683901 -1.55874 -3 -0.795609 -3 0 
C -3 0.795609 -2.683901 1.55874 -2.12132 2.12132 
C -1.55874 2.683901 -0.795609 3 0 3 
z
" style="stroke: #8c564b"/>
    </defs>
    <g clip-path="url(#p0be91e12e7)">
     <use xlink:href="#m0f943d0317" x="51.204331" y="173.629977" style="fill: #8c564b; stroke: #8c564b"/>
     <use xlink:href="#m0f943d0317" x="102.083806" y="147.341554" style="fill: #8c564b; stroke: #8c564b"/>
     <use xlink:href="#m0f943d0317" x="119.04363" y="119.722071" style="fill: #8c564b; stroke: #8c564b"/>
     <use xlink:href="#m0f943d0317" x="127.523543" y="99.423415" style="fill: #8c564b; stroke: #8c564b"/>
     <use xlink:href="#m0f943d0317" x="136.003455" y="80.289436" style="fill: #8c564b; stroke: #8c564b"/>
     <use xlink:href="#m0f943d0317" x="144.483368" y="60.65631" style="fill: #8c564b; stroke: #8c564b"/>
     <use xlink:href="#m0f943d0317" x="152.96328" y="51.338894" style="fill: #8c564b; stroke: #8c564b"/>
     <use xlink:href="#m0f943d0317" x="169.923105" y="37.695535" style="fill: #8c564b; stroke: #8c564b"/>
     <use xlink:href="#m0f943d0317" x="220.802579" y="29.376414" style="fill: #8c564b; stroke: #8c564b"/>
    </g>
   </g>
   <g id="patch_3">
    <path d="M 46.964375 192.098426 
L 46.964375 21.789375 
" style="fill: none; stroke: #000000; stroke-width: 1.25; stroke-linejoin: miter; stroke-linecap: square"/>
   </g>
   <g id="patch_4">
    <path d="M 46.964375 192.098426 
L 225.042535 192.098426 
" style="fill: none; stroke: #000000; stroke-width: 1.25; stroke-linejoin: miter; stroke-linecap: square"/>
   </g>
   <g id="text_9">
    <!-- Example mouse -->
    <g style="fill: #262626" transform="translate(92.986268 15.789375) scale(0.12 -0.12)">
     <defs>
      <path id="ArialMT-45" d="M 506 0 
L 506 4581 
L 3819 4581 
L 3819 4041 
L 1113 4041 
L 1113 2638 
L 3647 2638 
L 3647 2100 
L 1113 2100 
L 1113 541 
L 3925 541 
L 3925 0 
L 506 0 
z
" transform="scale(0.015625)"/>
      <path id="ArialMT-78" d="M 47 0 
L 1259 1725 
L 138 3319 
L 841 3319 
L 1350 2541 
Q 1494 2319 1581 2169 
Q 1719 2375 1834 2534 
L 2394 3319 
L 3066 3319 
L 1919 1756 
L 3153 0 
L 2463 0 
L 1781 1031 
L 1600 1309 
L 728 0 
L 47 0 
z
" transform="scale(0.015625)"/>
      <path id="ArialMT-61" d="M 2588 409 
Q 2275 144 1986 34 
Q 1697 -75 1366 -75 
Q 819 -75 525 192 
Q 231 459 231 875 
Q 231 1119 342 1320 
Q 453 1522 633 1644 
Q 813 1766 1038 1828 
Q 1203 1872 1538 1913 
Q 2219 1994 2541 2106 
Q 2544 2222 2544 2253 
Q 2544 2597 2384 2738 
Q 2169 2928 1744 2928 
Q 1347 2928 1158 2789 
Q 969 2650 878 2297 
L 328 2372 
Q 403 2725 575 2942 
Q 747 3159 1072 3276 
Q 1397 3394 1825 3394 
Q 2250 3394 2515 3294 
Q 2781 3194 2906 3042 
Q 3031 2891 3081 2659 
Q 3109 2516 3109 2141 
L 3109 1391 
Q 3109 606 3145 398 
Q 3181 191 3288 0 
L 2700 0 
Q 2613 175 2588 409 
z
M 2541 1666 
Q 2234 1541 1622 1453 
Q 1275 1403 1131 1340 
Q 988 1278 909 1158 
Q 831 1038 831 891 
Q 831 666 1001 516 
Q 1172 366 1500 366 
Q 1825 366 2078 508 
Q 2331 650 2450 897 
Q 2541 1088 2541 1459 
L 2541 1666 
z
" transform="scale(0.015625)"/>
      <path id="ArialMT-6d" d="M 422 0 
L 422 3319 
L 925 3319 
L 925 2853 
Q 1081 3097 1340 3245 
Q 1600 3394 1931 3394 
Q 2300 3394 2536 3241 
Q 2772 3088 2869 2813 
Q 3263 3394 3894 3394 
Q 4388 3394 4653 3120 
Q 4919 2847 4919 2278 
L 4919 0 
L 4359 0 
L 4359 2091 
Q 4359 2428 4304 2576 
Q 4250 2725 4106 2815 
Q 3963 2906 3769 2906 
Q 3419 2906 3187 2673 
Q 2956 2441 2956 1928 
L 2956 0 
L 2394 0 
L 2394 2156 
Q 2394 2531 2256 2718 
Q 2119 2906 1806 2906 
Q 1569 2906 1367 2781 
Q 1166 2656 1075 2415 
Q 984 2175 984 1722 
L 984 0 
L 422 0 
z
" transform="scale(0.015625)"/>
      <path id="ArialMT-6c" d="M 409 0 
L 409 4581 
L 972 4581 
L 972 0 
L 409 0 
z
" transform="scale(0.015625)"/>
      <path id="ArialMT-6f" d="M 213 1659 
Q 213 2581 725 3025 
Q 1153 3394 1769 3394 
Q 2453 3394 2887 2945 
Q 3322 2497 3322 1706 
Q 3322 1066 3130 698 
Q 2938 331 2570 128 
Q 2203 -75 1769 -75 
Q 1072 -75 642 372 
Q 213 819 213 1659 
z
M 791 1659 
Q 791 1022 1069 705 
Q 1347 388 1769 388 
Q 2188 388 2466 706 
Q 2744 1025 2744 1678 
Q 2744 2294 2464 2611 
Q 2184 2928 1769 2928 
Q 1347 2928 1069 2612 
Q 791 2297 791 1659 
z
" transform="scale(0.015625)"/>
      <path id="ArialMT-75" d="M 2597 0 
L 2597 488 
Q 2209 -75 1544 -75 
Q 1250 -75 995 37 
Q 741 150 617 320 
Q 494 491 444 738 
Q 409 903 409 1263 
L 409 3319 
L 972 3319 
L 972 1478 
Q 972 1038 1006 884 
Q 1059 663 1231 536 
Q 1403 409 1656 409 
Q 1909 409 2131 539 
Q 2353 669 2445 892 
Q 2538 1116 2538 1541 
L 2538 3319 
L 3100 3319 
L 3100 0 
L 2597 0 
z
" transform="scale(0.015625)"/>
      <path id="ArialMT-73" d="M 197 991 
L 753 1078 
Q 800 744 1014 566 
Q 1228 388 1613 388 
Q 2000 388 2187 545 
Q 2375 703 2375 916 
Q 2375 1106 2209 1216 
Q 2094 1291 1634 1406 
Q 1016 1563 777 1677 
Q 538 1791 414 1992 
Q 291 2194 291 2438 
Q 291 2659 392 2848 
Q 494 3038 669 3163 
Q 800 3259 1026 3326 
Q 1253 3394 1513 3394 
Q 1903 3394 2198 3281 
Q 2494 3169 2634 2976 
Q 2775 2784 2828 2463 
L 2278 2388 
Q 2241 2644 2061 2787 
Q 1881 2931 1553 2931 
Q 1166 2931 1000 2803 
Q 834 2675 834 2503 
Q 834 2394 903 2306 
Q 972 2216 1119 2156 
Q 1203 2125 1616 2013 
Q 2213 1853 2448 1751 
Q 2684 1650 2818 1456 
Q 2953 1263 2953 975 
Q 2953 694 2789 445 
Q 2625 197 2315 61 
Q 2006 -75 1616 -75 
Q 969 -75 630 194 
Q 291 463 197 991 
z
" transform="scale(0.015625)"/>
     </defs>
     <use xlink:href="#ArialMT-45"/>
     <use xlink:href="#ArialMT-78" transform="translate(66.699219 0)"/>
     <use xlink:href="#ArialMT-61" transform="translate(116.699219 0)"/>
     <use xlink:href="#ArialMT-6d" transform="translate(172.314453 0)"/>
     <use xlink:href="#ArialMT-70" transform="translate(255.615234 0)"/>
     <use xlink:href="#ArialMT-6c" transform="translate(311.230469 0)"/>
     <use xlink:href="#ArialMT-65" transform="translate(333.447266 0)"/>
     <use xlink:href="#ArialMT-20" transform="translate(389.0625 0)"/>
     <use xlink:href="#ArialMT-6d" transform="translate(416.845703 0)"/>
     <use xlink:href="#ArialMT-6f" transform="translate(500.146484 0)"/>
     <use xlink:href="#ArialMT-75" transform="translate(555.761719 0)"/>
     <use xlink:href="#ArialMT-73" transform="translate(611.376953 0)"/>
     <use xlink:href="#ArialMT-65" transform="translate(661.376953 0)"/>
    </g>
   </g>
  </g>
 </g>
 <defs>
  <clipPath id="p0be91e12e7">
   <rect x="46.964375" y="21.789375" width="178.07816" height="170.309051"/>
  </clipPath>
 </defs>
</svg>
